<?xml version="1.0" encoding="utf-8"?>
<!-- Generator: Adobe Illustrator 19.2.1, SVG Export Plug-In . SVG Version: 6.00 Build 0)  -->
<svg version="1.1" id="layer" xmlns="http://www.w3.org/2000/svg" xmlns:xlink="http://www.w3.org/1999/xlink" x="0px" y="0px"
	 viewBox="0 0 652 652" style="enable-background:new 0 0 652 652;" xml:space="preserve">
<style type="text/css">
	.st0{fill:#FFFFFF;}
	.st1{fill:#CFC493;}
	.st2{fill:#006747;}
</style>
<path class="st0" d="M132.2,286.8c0-2.2,2-8.9,2-8.9s-12.4,7.3-12.4,15.6c0,5.8,3.7,9.3,3.7,10.7c0,1.7-7.5,5.2-30,5.2l-16.4,27.2
	l-5.6,3.6L66.7,353H54l7.7-12.6l-1.9-3.9l18.6-27.9c-29.1,0-32.9-3.5-32.9-4.1c0-1.6,12.6-7.4,12.6-17.2c0-4.5-4.5-10-4.5-10
	c-2.1,19-30.8,14.5-30.8,36c0,8.8,10.7,12.6,21.3,13.4l-3.6,5.4c-1.4,2-0.3,4.3,1.4,7.7l-7.1,11.4c0,0-3.3,2.4-4,3.7
	c-1.5,2.9,1.6,7.3,6.5,15.3h34.7c11.7-6.6,16.5-9.3,16.5-12.1l-0.2-2.9l6.7-11.7c1.7-0.8,6-3,7.8-5.9l6.1-9.9
	c17.4-0.3,35.7-7.3,35.7-22.3C144.7,295.5,132.2,294.2,132.2,286.8 M107.7,325.6l-6.7,11c-1.8,3-7.5,5.3-7.5,5.3l-7.4,12.9l0.2,3.3
	c0.1,1.8-11.4,7.9-14.9,10H38.6c-1.2-2-6.8-10-5.8-12.1c0.4-0.8,2-1.9,3.7-3.3l8-12.8c-1.7-3.4-2.8-5.5-2.1-6.6l5.8-8.7
	c-6.6,0-23.2-1.6-23.2-11.3c0-17.9,25.3-17,29.4-30.8c0.9,1.4,1.4,3.1,1.5,4.7c0,9.2-12.7,13.4-12.7,17.1c0,5.2,17.6,6.4,30.9,6.4
	l-17,25.5l1.9,4L50,355.2h18l7.2-13.5l5.6-3.6l15.9-26.5c21.7,0,30.9-3.5,30.9-7.4c0-2.6-3.7-5.3-3.7-10.7s6.4-10.1,6.4-10.1
	c-3.3,12.3,12.1,12.3,12.1,22.1C142.5,319.4,124,325.6,107.7,325.6"/>
<path class="st1" d="M134.8,286.8c0-3.9,3.9-15.5,3.9-15.5s-19.6,10.9-19.6,22.2c0,5.5,3.1,10,3.1,10c-5.8,2.7-17.2,3.2-28.3,3.2
	l-16.8,27.9l-5.7,3.6l-6.4,12h-6.3l6-9.7l-1.8-3.9L83.4,306c-23.3,0-28.1-0.7-33.3-2.1c0,0,10.8-6.9,10.8-16.5
	c0-6.4-8.1-16.2-8.1-16.2l-3,10.1c-3.2,10.9-29.6,10.8-29.6,32.2c0,9.4,8.9,14,19.3,15.5l-1.2,1.7c-2,2.9-0.9,5.9,0.6,9l-6.1,9.8
	c0,0-3.3,2.3-4.4,4.3c-2.1,4.1,0.6,8.4,7.3,19.1h37.1c14.5-8.2,18.3-10.4,18.3-15c0,0-0.1-1-0.1-1.9l5.9-10.2
	c2.3-1.1,6.3-3.4,8.2-6.6l5.3-8.7c18.2-0.7,36.9-8.6,36.9-24.9C147.4,294.5,134.8,291.7,134.8,286.8 M109,327.8l-6.1,9.9
	c-1.8,2.9-6.1,5.1-7.8,5.9l-6.7,11.7l0.2,2.9c0,2.7-4.8,5.5-16.5,12.1H37.4c-4.9-8-8-12.4-6.5-15.3c0.7-1.4,4-3.7,4-3.7l7.1-11.5
	c-1.7-3.4-2.8-5.7-1.4-7.7l3.6-5.4c-10.6-0.7-21.4-4.5-21.4-13.3c0-21.6,28.7-17,30.9-36c0,0,4.5,5.4,4.5,10
	c0,9.8-12.7,15.5-12.7,17.2c0,0.6,3.8,4.1,32.9,4.1l-18.6,27.9l1.9,3.9L54,353h12.7l6.8-12.8l5.6-3.6l16.3-27.2
	c22.5,0,30-3.5,30-5.2c0-1.4-3.7-4.9-3.7-10.7c0-8.3,12.4-15.6,12.4-15.6s-2,6.7-2,8.9c0,7.4,12.6,8.7,12.6,18.7
	C144.7,320.5,126.4,327.5,109,327.8"/>
<path class="st2" d="M130.4,283.5c0,0-6.4,4.7-6.4,10.1s3.7,8.1,3.7,10.7c0,3.9-9.3,7.4-30.9,7.4l-16,26.5l-5.5,3.6L68,355.2H50
	l9.2-14.9l-1.9-4l17-25.5c-13.3,0-30.9-1.1-30.9-6.4c0-3.7,12.7-8,12.7-17.1c-0.1-1.7-0.6-3.3-1.5-4.7
	c-4.1,13.7-29.4,12.9-29.4,30.8c0,9.7,16.6,11.3,23.2,11.3l-5.8,8.7c-0.8,1.1,0.4,3.2,2.1,6.6l-8,12.8c-1.7,1.4-3.3,2.5-3.7,3.3
	c-1,2,4.6,10,5.8,12.1h32.8c3.5-2,15-8.1,14.9-10l-0.2-3.3l7.4-12.9c0,0,5.7-2.3,7.5-5.3l6.8-11c16.3,0,34.7-6.2,34.7-20.1
	C142.5,295.8,127.1,295.8,130.4,283.5"/>
<path class="st1" d="M86.4,367.6c-0.6,0-1.2,0.2-1.7,0.7c-0.4,0.4-0.7,1.1-0.7,1.7c0,0.6,0.2,1.2,0.7,1.7c0.9,0.9,2.4,1,3.4,0
	c0,0,0,0,0,0c0.9-0.9,0.9-2.4,0-3.4C87.7,367.9,87.1,367.6,86.4,367.6 M87.9,371.4c-0.8,0.8-2.1,0.8-2.9,0c0,0,0,0,0,0
	c-0.8-0.8-0.8-2.1,0-2.9c0.8-0.8,2.1-0.8,2.9,0c0,0,0,0,0,0C88.7,369.3,88.7,370.6,87.9,371.4"/>
<path class="st1" d="M87.5,369.4c0-0.3-0.1-0.6-0.4-0.7c-0.2-0.1-0.5-0.1-0.7-0.1h-0.9v2.6h0.5v-1h0.4c0.2,0,0.4,0,0.5,0.1
	c0.2,0.1,0.3,0.4,0.2,0.6v0.2v0.1l0,0l0,0h0.4l0,0c0,0,0-0.1,0-0.1c0-0.1,0-0.1,0-0.2v-0.2c0-0.1-0.1-0.3-0.1-0.4
	c-0.1-0.1-0.3-0.2-0.4-0.3c0.1,0,0.3-0.1,0.4-0.1C87.4,369.8,87.5,369.6,87.5,369.4 M86.8,369.8c-0.1,0-0.3,0.1-0.4,0.1H86V369h0.4
	c0.2,0,0.4,0,0.6,0.1c0.2,0.2,0.2,0.5,0.1,0.7C86.9,369.8,86.9,369.8,86.8,369.8"/>
<path class="st2" d="M181.8,283.2v14.7c0,2,0.9,3.1,2.8,3.1s2.8-1.1,2.8-3.1v-14.7h4v14.7c0,4.6-2.7,6.6-6.9,6.6
	c-4.2,0-6.8-1.9-6.8-6.6v-14.7H181.8z"/>
<path class="st2" d="M199.9,304.2v-21h4.4l5.6,12.4h0.1v-12.4h3.7v21h-3.8l-6.1-13.6h-0.1v13.6L199.9,304.2z"/>
<path class="st2" d="M222,304.2v-21h4v21H222z"/>
<path class="st2" d="M232.9,283.2h4l3.7,15h0.1l3.7-15h3.9l-5.4,21h-4.6L232.9,283.2z"/>
<path class="st2" d="M254.8,304.2v-21h11v3.5h-7v4.8h5.3v3.5h-5.3v5.5h7.3v3.5L254.8,304.2z"/>
<path class="st2" d="M283.1,304.2l-3.5-8.6h-1.9v8.6h-4v-21h5.8c4.8,0,7.1,2.3,7.1,6.3c0,2.6-0.9,4.5-3.2,5.4l4,9.4L283.1,304.2z
	 M277.7,292.4h2c1.8,0,2.9-0.9,2.9-2.9c0-2-1.1-2.9-2.9-2.9h-2V292.4z"/>
<path class="st2" d="M303.1,289.1c-0.7-2-1.5-2.8-2.9-2.8s-2.2,0.9-2.2,2.3c0,3.2,9,3.4,9,10c0,3.6-2.5,6-6.7,6
	c-3.3,0-5.8-1.8-6.9-5.9l4-0.8c0.5,2.5,1.9,3.4,3.1,3.4c1.3,0.1,2.4-0.9,2.5-2.2c0-0.1,0-0.2,0-0.3c0-4-9-4-9-9.9
	c0-3.6,2.2-5.9,6.3-5.9c3.1-0.2,5.9,2,6.5,5.1L303.1,289.1z"/>
<path class="st2" d="M315,304.2v-21h4v21H315z"/>
<path class="st2" d="M339.3,283.2v3.5h-4.7v17.5h-4v-17.5H326v-3.5H339.3z"/>
<path class="st2" d="M352.4,291.7l3.4-8.5h4.3l-5.7,12.5v8.5h-4v-8.5l-5.7-12.5h4.3L352.4,291.7z"/>
<path class="st2" d="M374.8,304.5c-4,0-6-3.4-6-7.6s2-7.6,6-7.6s6,3.4,6,7.6S378.8,304.5,374.8,304.5z M374.8,291
	c-2.4,0-4,2.1-4,5.9s1.6,5.9,4,5.9s4-2.1,4-5.9S377.2,291,374.8,291z"/>
<path class="st2" d="M387.2,304.2v-12.9h-2.5v-1.8h2.5v-1.7c0-3.5,1.2-4.3,3.6-4.3c0.6,0,1.2,0.1,1.8,0.1v1.8
	c-0.5-0.1-1-0.2-1.5-0.2c-1.4,0-1.9,0.5-1.9,2.1v2.2h3.2v1.8h-3.2v12.9H387.2z"/>
<path class="st2" d="M196.3,331.4c-1.6-4.7-3.7-6.7-7-6.7s-5.3,2.1-5.3,5.4c0,7.5,21.3,8.1,21.3,23.7c0,8.6-5.9,14.2-15.9,14.2
	c-7.7,0-13.8-4.2-16.3-14l9.4-2c1.1,6,4.6,8.1,7.4,8.1c3.3,0,5.9-2.2,5.9-5.9c0-9.4-21.3-9.5-21.3-23.5c0-8.6,5.1-14,15-14
	c8.5,0,13.7,5,15.3,12.1L196.3,331.4z"/>
<path class="st2" d="M212.1,333.6c0-12.3,6.5-16.7,15.8-16.7s15.8,4.4,15.8,16.7v17.8c0,12.3-6.5,16.7-15.8,16.7
	s-15.8-4.4-15.8-16.7V333.6z M221.6,352.6c0,5.5,2.4,7.1,6.2,7.1s6.2-1.5,6.2-7.1v-20.4c0-5.5-2.4-7-6.2-7s-6.2,1.5-6.2,7V352.6z"/>
<path class="st2" d="M260.8,317.5v34.9c0,4.7,2.1,7.3,6.7,7.3s6.8-2.5,6.8-7.3v-34.9h9.5v35c0,11-6.5,15.6-16.3,15.6
	c-9.8,0-16.3-4.6-16.3-15.6v-35H260.8z"/>
<path class="st2" d="M322.5,317.5v8.4h-11.1v41.5h-9.5V326h-11.1v-8.4H322.5z"/>
<path class="st2" d="M329.4,367.4v-49.9h9.5v19.9h13.5v-19.9h9.5v49.9h-9.5v-21.6H339v21.6H329.4z"/>
<path class="st2" d="M386.9,367.4v-49.9h24.9v8.4h-15.4v11.5h12v8.4h-12v21.6H386.9z"/>
<path class="st2" d="M418.3,367.4v-49.9h9.5V359h15.4v8.4H418.3z"/>
<path class="st2" d="M448.8,333.6c0-12.3,6.5-16.7,15.8-16.7s15.8,4.4,15.8,16.7v17.8c0,12.3-6.5,16.7-15.8,16.7
	s-15.8-4.4-15.8-16.7V333.6z M458.4,352.6c0,5.5,2.4,7.1,6.2,7.1s6.2-1.5,6.2-7.1v-20.4c0-5.5-2.4-7-6.2-7s-6.2,1.5-6.2,7V352.6z"/>
<path class="st2" d="M511.2,367.4l-8.3-20.4h-4.6v20.4h-9.5v-49.9h13.8c11.5,0,17,5.5,17,14.9c0,6.2-2.2,10.7-7.5,12.7l9.4,22.3
	H511.2z M498.3,339.2h4.9c4.2,0,6.8-2.1,6.8-6.9s-2.6-6.9-6.8-6.9h-4.9L498.3,339.2z"/>
<path class="st2" d="M528.5,367.4v-49.9h9.5v49.9H528.5z"/>
<path class="st2" d="M547.8,317.5h13.3c10.9,0,17,4.7,17.4,17.3v15.3c-0.4,12.6-6.5,17.3-17.4,17.3h-13.3V317.5z M557.4,359h3.3
	c5.3,0,8.3-2.5,8.3-10v-13.1c0-7-2.3-10-8.3-10h-3.3V359z"/>
<path class="st2" d="M583.6,367.4l12.4-49.9h12.2l12.1,49.9h-9.1l-2.4-10.5h-13.2l-2.7,10.5H583.6z M597.2,348.5h9.5l-4.6-20.2h-0.1
	L597.2,348.5z"/>
</svg>
